<svg width="20" height="17" viewBox="0 0 20 17" fill="none" xmlns="http://www.w3.org/2000/svg">
<path d="M9.99996 3.96069L9.20265 2.90732C8.88154 2.48309 8.52312 2.12729 8.13517 1.84067L8.13512 1.84063C7.37611 1.27978 6.52701 1 5.58701 1C4.303 1 3.1455 1.48826 2.30612 2.358L9.99996 3.96069ZM9.99996 3.96069L10.7973 2.90737M9.99996 3.96069L10.7973 2.90737M10.7973 2.90737C11.1186 2.48298 11.4768 2.12731 11.8647 1.84068L10.7973 2.90737ZM7.58053 14.0752L7.58058 14.0753L7.58375 14.0779C8.27052 14.6371 9.05389 15.275 9.86792 15.955L9.8686 15.9555C9.89855 15.9806 9.94461 16 10 16C10.0555 16 10.1017 15.9804 10.1312 15.9558L10.1317 15.9553C10.9397 15.2803 11.7179 14.6465 12.4012 14.0901L12.4198 14.0749L12.4199 14.0748C14.458 12.4156 16.1197 11.0584 17.2611 9.74256L17.2611 9.74251C18.5017 8.3125 19 7.05701 19 5.74238C19 4.41281 18.5244 3.2189 17.6938 2.35805C16.8544 1.48826 15.697 1 14.413 1C13.4731 1 12.624 1.27974 11.8648 1.84057L7.58053 14.0752ZM7.58053 14.0752C5.54226 12.4157 3.88042 11.0584 2.73905 9.74269C1.49845 8.31245 1 7.05694 1 5.74252C1 4.41284 1.47553 3.21894 2.30603 2.35809L7.58053 14.0752Z" fill="#FF6767" stroke="#FF6767" stroke-width="2"/>
</svg>
